<?xml version="1.0" encoding="UTF-8" standalone="no"?>
<!-- Uploaded to: SVG Repo, www.svgrepo.com, Transformed by: SVG Repo Mixer Tools -->

<svg
   width="70px"
   height="70px"
   viewBox="0 0 24 24"
   fill="none"
   version="1.1"
   id="svg7584"
   sodipodi:docname="delete.svg"
   inkscape:version="1.2.2 (732a01da63, 2022-12-09)"
   xmlns:inkscape="http://www.inkscape.org/namespaces/inkscape"
   xmlns:sodipodi="http://sodipodi.sourceforge.net/DTD/sodipodi-0.dtd"
   xmlns="http://www.w3.org/2000/svg"
   xmlns:svg="http://www.w3.org/2000/svg">
  <defs
     id="defs7588" />
  <sodipodi:namedview
     id="namedview7586"
     pagecolor="#ffffff"
     bordercolor="#000000"
     borderopacity="0.25"
     inkscape:showpageshadow="2"
     inkscape:pageopacity="0.0"
     inkscape:pagecheckerboard="0"
     inkscape:deskcolor="#d1d1d1"
     showgrid="false"
     inkscape:zoom="7.5"
     inkscape:cx="35.133333"
     inkscape:cy="35.066667"
     inkscape:window-width="1366"
     inkscape:window-height="705"
     inkscape:window-x="-8"
     inkscape:window-y="-8"
     inkscape:window-maximized="1"
     inkscape:current-layer="svg7584" />
  <g
     id="SVGRepo_bgCarrier"
     stroke-width="0" />
  <g
     id="SVGRepo_tracerCarrier"
     stroke-linecap="round"
     stroke-linejoin="round" />
  <g
     id="SVGRepo_iconCarrier"
     transform="matrix(1.0909091,0,0,1.0909091,-1.0909092,-1.0914133)"
     style="stroke:#ffffff;stroke-opacity:1">
    <path
       d="m 19,9 h 3 m -3,5 h 3 m -3,5 h 2 M 16,6 15.1991,18.0129 C 15.129,19.065 15.0939,19.5911 14.8667,19.99 14.6666,20.3412 14.3648,20.6235 14.0011,20.7998 13.588,21 13.0607,21 12.0062,21 H 7.99377 C 6.93927,21 6.41202,21 5.99889,20.7998 5.63517,20.6235 5.33339,20.3412 5.13332,19.99 4.90607,19.5911 4.871,19.065 4.80086,18.0129 L 4,6 M 2,6 H 18 M 14,6 13.7294,5.18807 C 13.4671,4.40125 13.3359,4.00784 13.0927,3.71698 12.8779,3.46013 12.6021,3.26132 12.2905,3.13878 11.9376,3 11.523,3 10.6936,3 H 9.30643 C 8.47705,3 8.06236,3 7.70951,3.13878 7.39792,3.26132 7.12208,3.46013 6.90729,3.71698 6.66405,4.00784 6.53292,4.40125 6.27064,5.18807 L 6,6 m 6,4 v 7 m -4,-7 -5e-5,6.9998"
       stroke="#000000"
       stroke-width="2"
       stroke-linecap="round"
       stroke-linejoin="round"
       id="path7581"
       style="stroke:#ffffff;stroke-opacity:1" />
  </g>
</svg>
