<?xml version="1.0" encoding="UTF-8" standalone="no"?>
<!-- Uploaded to: SVG Repo, www.svgrepo.com, Transformed by: SVG Repo Mixer Tools -->

<svg
   width="70px"
   height="70px"
   viewBox="0 0 48 48"
   fill="#000000"
   version="1.1"
   id="svg1091"
   sodipodi:docname="delete.svg"
   inkscape:version="1.2.2 (732a01da63, 2022-12-09)"
   xmlns:inkscape="http://www.inkscape.org/namespaces/inkscape"
   xmlns:sodipodi="http://sodipodi.sourceforge.net/DTD/sodipodi-0.dtd"
   xmlns="http://www.w3.org/2000/svg"
   xmlns:svg="http://www.w3.org/2000/svg">
  <defs
     id="defs1095" />
  <sodipodi:namedview
     id="namedview1093"
     pagecolor="#ffffff"
     bordercolor="#000000"
     borderopacity="0.25"
     inkscape:showpageshadow="2"
     inkscape:pageopacity="0.0"
     inkscape:pagecheckerboard="0"
     inkscape:deskcolor="#d1d1d1"
     showgrid="false"
     inkscape:zoom="7.1714286"
     inkscape:cx="34.930279"
     inkscape:cy="35"
     inkscape:window-width="1366"
     inkscape:window-height="705"
     inkscape:window-x="-8"
     inkscape:window-y="-8"
     inkscape:window-maximized="1"
     inkscape:current-layer="icons_Q2" />
  <g
     id="SVGRepo_bgCarrier"
     stroke-width="0" />
  <g
     id="SVGRepo_tracerCarrier"
     stroke-linecap="round"
     stroke-linejoin="round" />
  <g
     id="invisible_box"
     data-name="invisible box"
     style="stroke:#000000;stroke-width:0;stroke-dasharray:none;stroke-opacity:1"
     transform="matrix(1.0918389,0,0,1.0918389,-2.2041336,-2.2041336)">
    <rect
       width="48"
       height="48"
       fill="none"
       id="rect1077"
       x="0"
       y="0"
       style="stroke:#000000;stroke-width:0;stroke-dasharray:none;stroke-opacity:1" />
  </g>
  <g
     id="icons_Q2"
     data-name="icons Q2"
     style="stroke:#000000;stroke-width:0;stroke-dasharray:none;stroke-opacity:1"
     transform="matrix(1.0918389,0,0,1.0918389,-2.2041336,-2.2041336)">
    <g
       id="g1086"
       style="stroke:#000000;stroke-width:0;stroke-dasharray:none;stroke-opacity:1">
      <path
         d="M 41.4,42.6 5.4,6.6 A 1.9,1.9 0 0 0 2.6,6.6 1.8,1.8 0 0 0 2.3,9 l 6.8,6.9 2.7,27.3 a 2,2 0 0 0 2,1.8 h 20.4 a 2,2 0 0 0 2,-1.8 V 43 l 2.4,2.4 a 1.9,1.9 0 0 0 2.8,0 1.9,1.9 0 0 0 0,-2.8 z"
         id="path1080"
         style="stroke:#000000;stroke-width:0;stroke-dasharray:none;stroke-opacity:1;fill:#ffffff;fill-opacity:1" />
      <path
         d="M 43,8.8 A 2.3,2.3 0 0 1 42.4,10.4 2,2 0 0 1 41,11 H 15.8 l -4,-4 H 17 V 5 a 2,2 0 0 1 2,-2 h 10 a 2,2 0 0 1 2,2 v 2 h 9.9 A 2.1,2.1 0 0 1 43,8.8 Z"
         id="path1082"
         style="stroke:#000000;stroke-width:0;stroke-dasharray:none;stroke-opacity:1;fill:#ffffff;fill-opacity:1" />
      <path
         d="M 36.8,15 H 19.6 l 17.7,17.4 1.5,-15.2 a 2,2 0 0 0 -2,-2.2 z"
         id="path1084"
         style="stroke:#000000;stroke-width:0;stroke-dasharray:none;stroke-opacity:1;fill:#ffffff;fill-opacity:1" />
    </g>
  </g>
</svg>
