<?xml version="1.0" encoding="UTF-8" standalone="no"?>
<!-- Uploaded to: SVG Repo, www.svgrepo.com, Transformed by: SVG Repo Mixer Tools -->

<svg
   width="50"
   height="50"
   viewBox="0 0 18.75 18.75"
   fill="none"
   version="1.1"
   id="svg1998"
   sodipodi:docname="x.svg"
   inkscape:version="1.2.2 (732a01da63, 2022-12-09)"
   xmlns:inkscape="http://www.inkscape.org/namespaces/inkscape"
   xmlns:sodipodi="http://sodipodi.sourceforge.net/DTD/sodipodi-0.dtd"
   xmlns="http://www.w3.org/2000/svg"
   xmlns:svg="http://www.w3.org/2000/svg">
  <defs
     id="defs2002" />
  <sodipodi:namedview
     id="namedview2000"
     pagecolor="#ffffff"
     bordercolor="#000000"
     borderopacity="0.25"
     inkscape:showpageshadow="2"
     inkscape:pageopacity="0.0"
     inkscape:pagecheckerboard="0"
     inkscape:deskcolor="#d1d1d1"
     showgrid="false"
     inkscape:zoom="7.6583348"
     inkscape:cx="32.187154"
     inkscape:cy="32.121865"
     inkscape:window-width="1366"
     inkscape:window-height="705"
     inkscape:window-x="-8"
     inkscape:window-y="-8"
     inkscape:window-maximized="1"
     inkscape:current-layer="svg1998" />
  <g
     id="SVGRepo_bgCarrier"
     stroke-width="0" />
  <g
     id="SVGRepo_tracerCarrier"
     stroke-linecap="round"
     stroke-linejoin="round" />
  <g
     id="SVGRepo_iconCarrier"
     transform="matrix(1.7882161,0,0,1.7882161,-12.083763,-12.034637)">
    <path
       fill-rule="evenodd"
       clip-rule="evenodd"
       d="m 16.9498,8.46447 c 0.3906,-0.39053 0.3906,-1.02369 0,-1.41422 -0.3905,-0.39052 -1.0237,-0.39052 -1.4142,0 L 12.0001,10.5858 8.46455,7.05025 c -0.39053,-0.39052 -1.02369,-0.39052 -1.41422,0 -0.39052,0.39053 -0.39052,1.02369 0,1.41422 L 10.5859,12 7.05033,15.5355 c -0.39052,0.3906 -0.39052,1.0237 0,1.4142 0.39053,0.3906 1.02369,0.3906 1.41422,0 l 3.53555,-3.5355 3.5355,3.5355 c 0.3905,0.3906 1.0237,0.3906 1.4142,0 0.3906,-0.3905 0.3906,-1.0236 0,-1.4142 L 13.4143,12 Z"
       fill="#000000"
       id="path1995" />
  </g>
</svg>
